<?xml version="1.0" encoding="UTF-8"?>
<svg version="1.1" xmlns="http://www.w3.org/2000/svg" width="172" height="173">
<path d="M0 0 C56.76 0 113.52 0 172 0 C172 57.09 172 114.18 172 173 C115.24 173 58.48 173 0 173 C0 115.91 0 58.82 0 0 Z " fill="#FDFDFD" transform="translate(0,0)"/>
<path d="M0 0 C39.93 0 79.86 0 121 0 C121 0.33 121 0.66 121 1 C106.97577409 2.38039501 92.94403852 3.35516712 78.875 4.125 C77.69195786 4.19143707 77.69195786 4.19143707 76.48501587 4.25921631 C66.9775554 4.78910348 57.52518353 5.13226506 48 5 C48.5053125 5.98742187 49.010625 6.97484375 49.53125 7.9921875 C50.18771013 9.28635176 50.84394867 10.58062845 51.5 11.875 C51.83386719 12.52597656 52.16773438 13.17695313 52.51171875 13.84765625 C55 18.7734375 55 18.7734375 55 21 C55.66 21 56.32 21 57 21 C58.34394393 24.32916061 59.6756429 27.66299984 61 31 C61.30808594 31.77214844 61.61617187 32.54429688 61.93359375 33.33984375 C63.11128903 36.36578809 64 38.72330879 64 42 C64.66 42 65.32 42 66 42 C67.4701087 46.11383358 68.46643752 50.05775707 69.125 54.375 C69.29257813 55.43460938 69.46015625 56.49421875 69.6328125 57.5859375 C70.46382486 65.31258431 69.79385896 70.66011244 67.125 77.875 C65.1392469 83.50091695 63.34223206 88.9427939 62.421875 94.859375 C62 97 62 97 61.0546875 99.6796875 C59.72499907 103.86574366 59.05209207 108.0429926 58.375 112.375 C58.17390625 113.62216797 58.17390625 113.62216797 57.96875 114.89453125 C57.6413684 116.92897403 57.32006397 118.96439316 57 121 C56.34 121 55.68 121 55 121 C54.96132812 121.97839844 54.96132812 121.97839844 54.921875 122.9765625 C54.48842564 129.65562312 53.37720413 133.61388504 48.51953125 138.484375 C39.42364948 146.27510818 25.94075547 149.20748698 14.59765625 152.23828125 C12.09284832 152.74729605 12.09284832 152.74729605 11 154 C10.92794489 155.68608966 10.91613932 157.37500659 10.9375 159.0625 C10.95103516 160.44115234 10.95103516 160.44115234 10.96484375 161.84765625 C10.97644531 162.55792969 10.98804688 163.26820313 11 164 C15.44225078 166.04343536 19.15888106 167.19314684 24 168 C24.495 168.99 24.495 168.99 25 170 C26.89533342 170.46523063 26.89533342 170.46523063 29.0625 170.625 C31.0115625 170.810625 31.0115625 170.810625 33 171 C32.67 171.66 32.34 172.32 32 173 C21.44 173 10.88 173 0 173 C0 115.91 0 58.82 0 0 Z " fill="#FEFEFE" transform="translate(0,0)"/>
<path d="M0 0 C3.69186108 2.07216359 6.7061081 4.37947307 9.8125 7.25 C12.82036313 10.01794495 15.84842245 12.71069054 19 15.3125 C22.49695072 18.35800011 25.50849959 21.71924783 28.5 25.25 C29.16902344 26.02984253 29.16902344 26.02984253 29.8515625 26.82543945 C33 30.63413301 33 30.63413301 33 34 C33.66 34 34.32 34 35 34 C37.74375671 36.95481492 38 37.77471908 38 42 C38.66 42 39.32 42 40 42 C42.78564368 46.88654813 43.89211399 51.25799343 44.625 56.75 C44.76550781 57.49765625 44.90601562 58.2453125 45.05078125 59.015625 C45.71095624 64.02266647 44.90685615 66.70883607 41.97265625 70.83203125 C41.3290918 71.6626709 40.68552734 72.49331055 40.02246094 73.34912109 C37.9219782 76.10226469 36.1574097 78.92306949 34.39453125 81.90234375 C33.80349609 82.89427734 33.21246094 83.88621094 32.60351562 84.90820312 C31.39448918 86.95313226 30.18883791 89.00006013 28.98632812 91.04882812 C28.39916016 92.03173828 27.81199219 93.01464844 27.20703125 94.02734375 C26.6860083 94.91156006 26.16498535 95.79577637 25.62817383 96.70678711 C23.19844133 100.12896095 20.96362135 101.67879288 17 103 C14.89721542 103.12909319 12.79259043 103.22905927 10.6875 103.3125 C5.64839034 103.62520162 1.39700642 104.37810334 -3.375 106 C-10.0085854 108.07064243 -16.38238232 108.53879035 -23.3125 108.8125 C-24.32683105 108.85310547 -25.34116211 108.89371094 -26.38623047 108.93554688 C-34.59137506 109.16701889 -42.32734329 108.59220417 -50.3125 106.625 C-51.29863281 106.39039063 -52.28476562 106.15578125 -53.30078125 105.9140625 C-56.1418784 104.95195435 -57.89726276 104.14185794 -60 102 C-60.56640625 99.625 -60.56640625 99.625 -60.5625 97 C-60.58441406 96.13375 -60.60632812 95.2675 -60.62890625 94.375 C-60 92 -60 92 -57.97265625 90.3359375 C-54.34262195 88.7045686 -50.71213848 87.65127585 -46.875 86.625 C-30.2177045 82.17464162 -30.2177045 82.17464162 -17.87890625 71.05078125 C-16.32650557 67.15121016 -15.52057907 63.16463257 -15 59 C-14.34 59 -13.68 59 -13 59 C-13.04125 57.88625 -13.0825 56.7725 -13.125 55.625 C-13.11364789 49.19970547 -11.90065568 43.02148796 -9.5 37.0625 C-8.27703751 34.02325658 -7.63098872 31.17391842 -7.125 27.9375 C-6.13997559 21.90106837 -4.17729073 16.31351122 -2.12109375 10.578125 C-0.99197255 6.97437928 -0.42639917 3.73698148 0 0 Z " fill="#F0B48E" transform="translate(70,62)"/>
<path d="M0 0 C5.71723931 0.40837424 11.08160783 1.44240807 16.625 2.875 C18.74411662 3.41268631 20.86350899 3.94927641 22.98291016 4.48583984 C24.7964687 4.94811947 26.60739938 5.42067938 28.41796875 5.89453125 C38.09810733 8.15582945 47.62973832 8.45592695 57.54614258 8.62182617 C66.66005938 8.80881532 73.3141963 9.92446925 81 15 C85 19.20512821 85 19.20512821 85 23 C80.72797192 23.27268264 78.344391 23.13601998 74.28125 21.53125 C67.25525442 19.09510078 59.79045554 19.4253227 52.4375 19.3125 C50.93682025 19.27926684 49.43616789 19.24477181 47.93554688 19.20898438 C44.29056546 19.12477196 40.64550976 19.05764281 37 19 C37 19.66 37 20.32 37 21 C38.34578125 21.14695312 38.34578125 21.14695312 39.71875 21.296875 C49.39398215 22.45630365 58.61186964 24.41416348 68 27 C69.75570312 27.4640625 69.75570312 27.4640625 71.546875 27.9375 C78.73154004 29.96134931 86.57861287 32.57861287 92 38 C92.23529412 45.29411765 92.23529412 45.29411765 91 49 C90.01 49 89.02 49 88 49 C87.443125 48.4225 86.88625 47.845 86.3125 47.25 C80.07499654 41.18107771 71.13894135 39.33100847 63 37 C61.87980469 36.66484375 60.75960937 36.3296875 59.60546875 35.984375 C55.71578081 34.92240169 51.83677674 34.10893974 47.875 33.375 C46.84052734 33.17390625 46.84052734 33.17390625 45.78515625 32.96875 C42.14445056 32.28655276 38.70496413 31.84142177 35 32 C36.50626953 33.01707031 36.50626953 33.01707031 38.04296875 34.0546875 C51.83010651 43.41448277 65.26613059 53.07928554 77 65 C75.7251791 67.84383123 74.54862922 70.13754018 72 72 C68.6911336 71.5821798 67.23868037 70.51575374 65.0625 68.0625 C55.52434338 58.14039216 43.35339901 50.66609484 32 43 C32.59167969 43.70125 33.18335938 44.4025 33.79296875 45.125 C46 59.78140294 46 59.78140294 46 64 C46.66 64 47.32 64 48 64 C54.90642251 80.96431938 54.90642251 80.96431938 54 86 C51.89422937 88.89871668 49.52452575 91.46259402 47 94 C46.01 93.505 46.01 93.505 45 93 C44.5714932 90.58667353 44.24904206 88.245272 44 85.8125 C43.49154313 80.9868677 42.70603268 76.57074588 41 72 C40.34 72 39.68 72 39 72 C37.92474806 69.34771188 36.90543849 66.71631546 36 64 C35.34 64 34.68 64 34 64 C33.18208984 62.46472656 33.18208984 62.46472656 32.34765625 60.8984375 C30.12973101 57.02704364 27.48913987 53.86206852 24.4375 50.625 C23.91518799 50.06482178 23.39287598 49.50464355 22.85473633 48.92749023 C17.41259005 43.20163406 11.44271036 37.91652749 4.828125 33.57421875 C1.49265901 31.23801426 0.22150275 29.84857392 -0.83203125 25.8125 C-1.18558171 23.49280201 -1.48167688 21.16338436 -1.7109375 18.828125 C-1.82599976 16.05304196 -1.82599976 16.05304196 -3 14 C-3.55564585 8.561082 -3.46467618 4.47520673 0 0 Z " fill="#139BDB" transform="translate(69,32)"/>
<path d="M0 0 C0.05913574 0.72880371 0.11827148 1.45760742 0.17919922 2.20849609 C1.18460076 14.00873521 3.05896587 21.96365082 11 31 C11.70125 31.928125 12.4025 32.85625 13.125 33.8125 C15.20021554 36.2335848 17.49308502 38.03967468 20 40 C-1.55277128 40.02954747 -22.53443932 39.03427376 -43.13818359 31.91577148 C-46.24057811 30.92301583 -48.76341022 30.84587668 -52 31 C-52.99 33.97 -53.98 36.94 -55 40 C-55.66 40 -56.32 40 -57 40 C-57.98397585 37.4392555 -58.96229967 34.87658508 -59.9375 32.3125 C-60.21529297 31.59126953 -60.49308594 30.87003906 -60.77929688 30.12695312 C-62.17766574 26.43728107 -63.38936004 22.91891718 -64 19 C-64.66 19 -65.32 19 -66 19 C-67.17441535 16.89983377 -68.33964012 14.79541245 -69.5 12.6875 C-69.83386719 12.09259766 -70.16773438 11.49769531 -70.51171875 10.88476562 C-72.06825114 8.04171156 -73 6.29339012 -73 3 C-48.63567683 1.06650225 -24.4451085 -0.22213506 0 0 Z " fill="#EFAF8B" transform="translate(121,2)"/>
<path d="M0 0 C17.92067596 1.2228226 39.39160387 4.7627722 54 16 C54 16.66 54 17.32 54 18 C54.66 18 55.32 18 56 18 C54.71802414 22.53673322 53.03599258 25.66346535 50.0625 29.3125 C49.37285156 30.17488281 48.68320313 31.03726563 47.97265625 31.92578125 C46 34 46 34 43 35 C42.42894531 34.39414063 41.85789063 33.78828125 41.26953125 33.1640625 C31.04007082 22.59307796 19.38265925 14.41963448 7.18383789 6.28979492 C6.39614014 5.7610376 5.60844238 5.23228027 4.796875 4.6875 C4.08885742 4.21699219 3.38083984 3.74648437 2.65136719 3.26171875 C1 2 1 2 0 0 Z " fill="#DB8B7A" transform="translate(103,63)"/>
<path d="M0 0 C3.69130545 -0.19362178 4.809593 -0.12046157 8.0625 1.9375 C11.135907 4.71448703 12.35868059 7.74045147 13.875 11.53125 C17.82167286 20.19200433 24.55428897 28.18690335 32 34 C27.57052938 33.90587805 23.14155688 33.79965977 18.71264648 33.68261719 C17.20849377 33.64452511 15.70425608 33.60963908 14.19995117 33.578125 C12.02752477 33.53204105 9.85567345 33.47412346 7.68359375 33.4140625 C6.37962646 33.3826416 5.07565918 33.3512207 3.73217773 33.31884766 C-0.15698415 32.98658852 -3.30254085 32.19272876 -7 31 C-6.10002046 19.90472989 -4.28291283 10.31495418 0 0 Z " fill="#FA56BE" transform="translate(109,8)"/>
<path d="M0 0 C14.44562741 6.94551735 26.74654267 17.7801853 38 29 C34.91998122 32.16178919 31.81405516 35.06289825 28.3125 37.75 C27.54550781 38.34296875 26.77851562 38.9359375 25.98828125 39.546875 C24 41 24 41 22 42 C21.73445313 40.98679688 21.46890625 39.97359375 21.1953125 38.9296875 C20.83864311 37.57809823 20.48186657 36.22653722 20.125 34.875 C19.86396484 33.87726563 19.86396484 33.87726563 19.59765625 32.859375 C18.5368867 28.85202336 17.35567689 24.92047101 16 21 C15.34 21 14.68 21 14 21 C13.74347656 20.46632813 13.48695312 19.93265625 13.22265625 19.3828125 C10.17176574 13.44538922 6.40790403 8.87708103 1.79296875 4.06640625 C0 2 0 2 0 0 Z " fill="#DE8F75" transform="translate(101,75)"/>
<path d="M0 0 C4.3924631 -0.07482575 8.78457672 -0.12891683 13.17749023 -0.16479492 C14.66811598 -0.17977042 16.15869851 -0.20015819 17.64916992 -0.22631836 C32.31276687 -0.47702015 32.31276687 -0.47702015 39.27514648 2.34741211 C41.543206 3.2055187 43.42303943 3.14985446 45.8125 2.875 C49.70304224 2.72588514 49.70304224 2.72588514 52.4375 5.25 C52.953125 6.1575 53.46875 7.065 54 8 C54.4125 8.61875 54.825 9.2375 55.25 9.875 C56.32985792 12.93459743 56.12357258 15.78711296 56 19 C52.43714564 17.65275579 49.20533246 16.02743586 45.875 14.1875 C31.77803241 7.10454929 15.36945914 4.89898123 0 2 C0 1.34 0 0.68 0 0 Z " fill="#7E80C2" transform="translate(106,51)"/>
<path d="M0 0 C7.2607787 0.93687467 14.24871249 4.57593268 20 9 C20 9.66 20 10.32 20 11 C20.66 11 21.32 11 22 11 C20.71802414 15.53673322 19.03599258 18.66346535 16.0625 22.3125 C15.37285156 23.17488281 14.68320313 24.03726563 13.97265625 24.92578125 C12 27 12 27 9 28 C5.9868948 26.04895538 3.90497299 24.05713738 2 21 C1.2995657 16.86450166 1.10697256 12.92444711 1.0703125 8.7421875 C1.0120389 5.64073683 0.73455497 2.99651791 0 0 Z " fill="#DC8163" transform="translate(137,70)"/>
<path d="M0 0 C3.39095746 1.40315481 5.1667011 2.80172887 7 6 C7.00512695 8.97680664 7.00512695 8.97680664 6.48828125 12.41015625 C6.30716797 13.64701172 6.12605469 14.88386719 5.93945312 16.15820312 C5.73255859 17.44662109 5.52566406 18.73503906 5.3125 20.0625 C5.12494141 21.35478516 4.93738281 22.64707031 4.74414062 23.97851562 C3.28859549 33.56710676 3.28859549 33.56710676 1 37 C-1.5625 37.25 -1.5625 37.25 -4 37 C-5.7744816 35.2255184 -5.17300743 32.71536868 -5.1875 30.3125 C-5.09515015 19.79616098 -3.73531667 9.84765303 0 0 Z " fill="#F95BB9" transform="translate(92,83)"/>
<path d="M0 0 C4.10839064 1.45002023 7.50344613 3.3979134 11 6 C11 6.66 11 7.32 11 8 C11.66 8 12.32 8 13 8 C11.71802414 12.53673322 10.03599258 15.66346535 7.0625 19.3125 C6.37285156 20.17488281 5.68320313 21.03726563 4.97265625 21.92578125 C3 24 3 24 0 25 C-0.33 24.34 -0.66 23.68 -1 23 C-0.2884375 21.9790625 -0.2884375 21.9790625 0.4375 20.9375 C3.93209496 14.36766148 1.82049481 6.87561878 0 0 Z " fill="#F05AB5" transform="translate(146,73)"/>
<path d="M0 0 C5.4852071 0.60946746 5.4852071 0.60946746 7.8125 2.375 C10.57038275 6.14894481 10.11645281 10.24261841 10.0625 14.6875 C10.05798828 15.38939453 10.05347656 16.09128906 10.04882812 16.81445312 C10.03706927 18.54300538 10.01913454 20.27151365 10 22 C5.9666292 19.7769561 2.65202295 17.7839348 1.0234375 13.328125 C0.21360174 8.85589767 -0.06569758 4.54134513 0 0 Z " fill="#F259B7" transform="translate(129,68)"/>
<path d="M0 0 C2.87658142 2.30126513 4.57194954 5.10663944 5.875 8.5 C6.125 12.4375 6.125 12.4375 5.875 15.5 C4.18801918 14.88655243 2.52672812 14.20286303 0.875 13.5 C0.27429688 13.26667969 -0.32640625 13.03335938 -0.9453125 12.79296875 C-4.02121242 11.38371753 -5.74117305 10.47471844 -7.015625 7.23828125 C-7.50979622 4.9898022 -7.88536947 2.78871608 -8.125 0.5 C-5.23939154 -0.1558201 -2.91023442 -0.68476104 0 0 Z " fill="#D57E63" transform="translate(156.125,54.5)"/>
<path d="M0 0 C3.28163942 3.28163942 3.95016998 5.21517713 4.25 9.9375 C4.15499707 13.33860473 3.68563555 15.98359954 2 19 C-1 21 -1 21 -3.6875 20.625 C-4.8321875 20.315625 -4.8321875 20.315625 -6 20 C-6.7214682 14.51684165 -4.74365094 11.03539573 -2.19140625 6.3671875 C-1.10947266 4.21750961 -0.47070259 2.34810256 0 0 Z " fill="#F959B8" transform="translate(109,104)"/>
<path d="M0 0 C4.00930272 1.83253483 7.60786264 4.22609619 11.25 6.6875 C11.8996875 7.09677734 12.549375 7.50605469 13.21875 7.92773438 C15.05405209 9.18275713 16.55927617 10.30445236 18 12 C18.56667077 16.30486988 18.3594625 19.31333984 16 23 C16 22.34 16 21.68 16 21 C15.34 21 14.68 21 14 21 C13.74347656 20.46632813 13.48695312 19.93265625 13.22265625 19.3828125 C10.17176574 13.44538922 6.40790403 8.87708103 1.79296875 4.06640625 C0 2 0 2 0 0 Z " fill="#E859BE" transform="translate(101,75)"/>
<path d="M0 0 C5.91492272 0.45224761 11.35199888 1.1582605 17 3 C17 5.97 17 8.94 17 12 C13.38978847 10.19489423 10.17186908 8.22594005 6.8125 6 C5.74644531 5.29875 4.68039063 4.5975 3.58203125 3.875 C1 2 1 2 0 0 Z " fill="#E659BF" transform="translate(103,63)"/>
<path d="M0 0 C0.33 0 0.66 0 1 0 C1 1.98 1 3.96 1 6 C-2.87671106 8.67289025 -6.79267603 8.01875653 -11.25 7.625 C-11.99507812 7.56828125 -12.74015625 7.5115625 -13.5078125 7.453125 C-15.33935108 7.31223742 -17.16981352 7.15748116 -19 7 C-19 6.34 -19 5.68 -19 5 C-17.71222656 4.72285156 -16.42445312 4.44570312 -15.09765625 4.16015625 C-13.41922846 3.79446528 -11.74084532 3.42856928 -10.0625 3.0625 C-9.21236328 2.88009766 -8.36222656 2.69769531 -7.48632812 2.50976562 C-6.67744141 2.33251953 -5.86855469 2.15527344 -5.03515625 1.97265625 C-3.91185913 1.72914429 -3.91185913 1.72914429 -2.76586914 1.48071289 C-0.98825697 1.15377204 -0.98825697 1.15377204 0 0 Z " fill="#EFAF8A" transform="translate(45,163)"/>
<path d="M0 0 C3.31248187 -0.02888146 6.62493167 -0.04675799 9.9375 -0.0625 C10.88302734 -0.07087891 11.82855469 -0.07925781 12.80273438 -0.08789062 C14.15141602 -0.09272461 14.15141602 -0.09272461 15.52734375 -0.09765625 C16.77632446 -0.10551147 16.77632446 -0.10551147 18.05053711 -0.11352539 C20 0 20 0 21 1 C21.04063832 2.66617115 21.042721 4.33388095 21 6 C13.89622327 4.98208077 6.92488567 3.90094901 0 2 C0 1.34 0 0.68 0 0 Z " fill="#E65BBD" transform="translate(113,52)"/>
<path d="M0 0 C1.258125 0.12375 2.51625 0.2475 3.8125 0.375 C4.87404297 0.47941406 4.87404297 0.47941406 5.95703125 0.5859375 C8 1 8 1 11 3 C11.98515378 5.62356462 12.42238929 8.24524123 13 11 C9.76955743 10.78601769 6.95541471 10.3581682 4 9 C2.03875644 6.18425138 0.96483233 3.27908051 0 0 Z " fill="#EA58BB" transform="translate(137,52)"/>
<path d="M0 0 C-5.85789784 2.65263298 -10.35422401 3.27286558 -16.77734375 3.0078125 C-17.51082031 3.00523437 -18.24429688 3.00265625 -19 3 C-19.33 3.33 -19.66 3.66 -20 4 C-22.18639453 4.07258946 -24.37500389 4.08373783 -26.5625 4.0625 C-28.35880859 4.04896484 -28.35880859 4.04896484 -30.19140625 4.03515625 C-31.11824219 4.02355469 -32.04507813 4.01195312 -33 4 C-33 3.67 -33 3.34 -33 3 C-34.134375 2.87625 -35.26875 2.7525 -36.4375 2.625 C-37.613125 2.41875 -38.78875 2.2125 -40 2 C-40.33 1.34 -40.66 0.68 -41 0 C-39.89785156 0.08378906 -38.79570313 0.16757813 -37.66015625 0.25390625 C-29.56914813 0.81618101 -21.60265747 1.11609677 -13.5 0.625 C-12.7769165 0.58189697 -12.05383301 0.53879395 -11.30883789 0.49438477 C-0.8157987 -0.24473961 -0.8157987 -0.24473961 0 0 Z " fill="#F8E6D9" transform="translate(65,169)"/>
<path d="M0 0 C3.36720387 1.39332574 4.9859524 2.9789286 7 6 C1.25 11 1.25 11 -1 11 C-1.125 3.375 -1.125 3.375 0 0 Z " fill="#F25AC0" transform="translate(132,99)"/>
<path d="M0 0 C4.4030087 1.34536377 6.471564 3.16052312 9 7 C9 7.99 9 8.98 9 10 C5.625 10.125 5.625 10.125 2 10 C1.34 9.34 0.68 8.68 0 8 C0.31229724 6.66158328 0.64830932 5.32860925 1 4 C0.62092718 1.81296615 0.62092718 1.81296615 0 0 Z " fill="#29A0D5" transform="translate(145,45)"/>
<path d="M0 0 C0.66 0 1.32 0 2 0 C2 4.95 2 9.9 2 15 C0.68 15 -0.64 15 -2 15 C-1.85816304 13.24967156 -1.71136571 11.49974466 -1.5625 9.75 C-1.48128906 8.77546875 -1.40007812 7.8009375 -1.31640625 6.796875 C-1.04925416 4.43538247 -0.64628032 2.28098935 0 0 Z " fill="#E38E89" transform="translate(111,26)"/>
<path d="M0 0 C3.95514941 1.74026574 7.95394589 3.90359789 11 7 C11.4375 10.3125 11.4375 10.3125 11 13 C9.83593677 11.83593677 8.67245135 10.67129061 7.51171875 9.50390625 C6.46205398 8.4596661 5.40128152 7.42652024 4.33203125 6.40234375 C2.85185191 4.97138652 1.42232322 3.48847779 0 2 C0 1.34 0 0.68 0 0 Z " fill="#B69D93" transform="translate(101,75)"/>
<path d="M0 0 C15.84 0.495 15.84 0.495 32 1 C32 1.33 32 1.66 32 2 C27.41701735 2.19683437 22.83360802 2.38085996 18.25 2.5625 C16.94804688 2.61857422 15.64609375 2.67464844 14.3046875 2.73242188 C12.42910156 2.80493164 12.42910156 2.80493164 10.515625 2.87890625 C9.36352539 2.9260376 8.21142578 2.97316895 7.02441406 3.02172852 C4.43687478 3.00313867 2.44649046 2.77962196 0 2 C0 1.34 0 0.68 0 0 Z " fill="#3696CE" transform="translate(98,49)"/>
<path d="M0 0 C4.29 0 8.58 0 13 0 C13 1.32 13 2.64 13 4 C11.58297487 3.85769192 10.1663904 3.71099254 8.75 3.5625 C7.56664063 3.44068359 7.56664063 3.44068359 6.359375 3.31640625 C4.17635361 3.02365007 2.1226818 2.57935581 0 2 C0 1.34 0 0.68 0 0 Z " fill="#E08A7D" transform="translate(113,52)"/>
<path d="M0 0 C3.3 0.33 6.6 0.66 10 1 C10 2.98 10 4.96 10 7 C5.56541027 5.6062718 3.12621626 3.39417765 0 0 Z " fill="#C8988B" transform="translate(103,63)"/>
<path d="M0 0 C2.3125 0.0625 2.3125 0.0625 5 1 C6.8125 4.5625 6.8125 4.5625 8 8 C5.69 7.67 3.38 7.34 1 7 C0.67 4.69 0.34 2.38 0 0 Z " fill="#D77E80" transform="translate(133,52)"/>
<path d="M0 0 C0.99 0.33 1.98 0.66 3 1 C2.484375 1.350625 1.96875 1.70125 1.4375 2.0625 C-0.32698451 4.0585892 -0.32698451 4.0585892 -0.125 7.4375 C1.07691751 11.24357212 1.32254899 11.59736555 4.5625 13.4375 C5.696875 13.953125 6.83125 14.46875 8 15 C7.01 15.495 7.01 15.495 6 16 C-0.51428571 13.48571429 -0.51428571 13.48571429 -2 12 C-2.1245486 10.35769636 -2.17568524 8.70947724 -2.1875 7.0625 C-2.20167969 6.16660156 -2.21585938 5.27070313 -2.23046875 4.34765625 C-2 2 -2 2 0 0 Z " fill="#F7DBC2" transform="translate(12,152)"/>
<path d="M0 0 C0 0.66 0 1.32 0 2 C-3.63423209 4.32590854 -6.77088331 4.16265833 -11 4 C-11 3.34 -11 2.68 -11 2 C-7.17679443 0.57741188 -4.08718695 -0.24042276 0 0 Z " fill="#E89B77" transform="translate(46,167)"/>
<path d="M0 0 C0.66 0.33 1.32 0.66 2 1 C2.59355614 3.64860427 2.74209269 6.29197322 3 9 C2.34 8.67 1.68 8.34 1 8 C1 7.34 1 6.68 1 6 C0.443125 6.33 -0.11375 6.66 -0.6875 7 C-3.30284522 8.1309601 -5.1806646 8.15662974 -8 8 C-5.66785852 6.79371992 -3.50357861 5.8345262 -1 5 C-0.67 3.35 -0.34 1.7 0 0 Z " fill="#D9928A" transform="translate(112,118)"/>
<path d="M0 0 C0.66 0.33 1.32 0.66 2 1 C-0.31 3.64 -2.62 6.28 -5 9 C-5.99 8.67 -6.98 8.34 -8 8 C-5.36 5.36 -2.72 2.72 0 0 Z " fill="#DEE2E0" transform="translate(128,112)"/>
<path d="M0 0 C0.99 1.32 1.98 2.64 3 4 C0.525 5.485 0.525 5.485 -2 7 C-2.33 6.34 -2.66 5.68 -3 5 C-1.5625 2.375 -1.5625 2.375 0 0 Z " fill="#EC66B6" transform="translate(148,91)"/>
<path d="M0 0 C0.66 0.66 1.32 1.32 2 2 C1.7578125 3.9453125 1.7578125 3.9453125 1.125 6.125 C0.92132813 6.84945312 0.71765625 7.57390625 0.5078125 8.3203125 C0.34023437 8.87460937 0.17265625 9.42890625 0 10 C-1.64826111 7.03312999 -2.44271087 4.34373475 -3 1 C-2.01 0.67 -1.02 0.34 0 0 Z " fill="#E8BA97" transform="translate(66,32)"/>
<path d="M0 0 C2.64 0 5.28 0 8 0 C8 0.99 8 1.98 8 3 C5.36 2.67 2.72 2.34 0 2 C0 1.34 0 0.68 0 0 Z " fill="#F159B9" transform="translate(113,52)"/>
<path d="M0 0 C-3.50538557 1.96301592 -7.13351728 2.95902388 -11 4 C-11.66 3.34 -12.32 2.68 -13 2 C-4.57142857 -0.28571429 -4.57142857 -0.28571429 0 0 Z " fill="#ECA680" transform="translate(45,166)"/>
<path d="M0 0 C2.00773956 2.00773956 2.99392854 3.36873617 4 6 C3.625 8.25 3.625 8.25 3 10 C2.67 9.01 2.34 8.02 2 7 C1.01 7 0.02 7 -1 7 C-0.67 4.69 -0.34 2.38 0 0 Z " fill="#B269C7" transform="translate(109,104)"/>
<path d="M0 0 C0.99 0.33 1.98 0.66 3 1 C3 1.66 3 2.32 3 3 C3.99 3 4.98 3 6 3 C6 5.31 6 7.62 6 10 C4.66666667 7.33333333 3.33333333 4.66666667 2 2 C1.34 2 0.68 2 0 2 C0 1.34 0 0.68 0 0 Z " fill="#389DCB" transform="translate(103,94)"/>
<path d="M0 0 C2.31 0 4.62 0 7 0 C7 0.99 7 1.98 7 3 C4.69 2.67 2.38 2.34 0 2 C0 1.34 0 0.68 0 0 Z " fill="#C49690" transform="translate(106,51)"/>
<path d="M0 0 C1.32 1.32 2.64 2.64 4 4 C3.67 4.99 3.34 5.98 3 7 C2.01 6.67 1.02 6.34 0 6 C0 4.02 0 2.04 0 0 Z " fill="#CAA18B" transform="translate(99,89)"/>
<path d="M0 0 C0.99 0.33 1.98 0.66 3 1 C3 2.98 3 4.96 3 7 C2.01 6.34 1.02 5.68 0 5 C-0.1875 2.375 -0.1875 2.375 0 0 Z " fill="#D99685" transform="translate(109,81)"/>
<path d="M0 0 C1.98 0 3.96 0 6 0 C5.67 0.99 5.34 1.98 5 3 C3.35 3 1.7 3 0 3 C0 2.01 0 1.02 0 0 Z " fill="#FA52BD" transform="translate(126,53)"/>
<path d="M0 0 C2.64 0.33 5.28 0.66 8 1 C8 1.66 8 2.32 8 3 C5.36 2.67 2.72 2.34 0 2 C0 1.34 0 0.68 0 0 Z " fill="#9773CD" transform="translate(98,49)"/>
<path d="M0 0 C0.66 0 1.32 0 2 0 C2 2.31 2 4.62 2 7 C1.01 7.33 0.02 7.66 -1 8 C-0.67 5.36 -0.34 2.72 0 0 Z " fill="#F47799" transform="translate(111,26)"/>
</svg>
